<svg xmlns="http://www.w3.org/2000/svg" width="39.91" height="31.558" viewBox="0 0 39.91 31.558">
  <g id="camera-208" transform="translate(-20.215 -117.058)">
    <path id="Path_64022" data-name="Path 64022" d="M383.823,369.272a7.649,7.649,0,1,0,7.649,7.65A7.657,7.657,0,0,0,383.823,369.272Z" transform="translate(-341.505 -241.973)" fill="#cbcbcb"/>
    <path id="Path_64023" data-name="Path 64023" d="M53.8,121.592H50.293l-1.25-2.993s-.678-1.541-2.054-1.541H37.8c-1.3,0-1.888,1.5-1.888,1.5l-1.27,3.037h-4v-1.286H26.542a6.326,6.326,0,0,0-6.327,6.327v15.656a6.326,6.326,0,0,0,6.327,6.327H53.8a6.327,6.327,0,0,0,6.326-6.327V127.92A6.328,6.328,0,0,0,53.8,121.592ZM42.318,145.218a10.271,10.271,0,1,1,10.27-10.27A10.271,10.271,0,0,1,42.318,145.218Z" fill="#cbcbcb"/>
  </g>
</svg>
