<svg xmlns="http://www.w3.org/2000/svg" width="37.307" height="31.984" viewBox="0 0 37.307 31.984">
  <g id="photo-gallery" transform="translate(-128.637 -183.248)">
    <path id="Path_64019" data-name="Path 64019" d="M165.944,297.14a4,4,0,0,0-4-4H132.634a4,4,0,0,0-4,4v18.666a4,4,0,0,0,4,4h29.314a4,4,0,0,0,4-4V297.14Zm-7.934.077a2.665,2.665,0,1,1-2.665,2.665,2.665,2.665,0,0,1,2.665-2.665Zm2.665,20.074H134.029a2.622,2.622,0,0,1-2.752-2.521v-1.6l9.5-10.967.022.008.018-.01a2.261,2.261,0,0,1,3.629,0l6.528,7.569,2.339-2.751a1.9,1.9,0,0,1,3.135.043l6.457,9.1a2.6,2.6,0,0,1-2.227,1.133Zm0,0" transform="translate(0 -104.572)" fill="#cbcbcb"/>
    <path id="Path_64020" data-name="Path 64020" d="M187.043,240.124h31.083c.122,0,.242.011.361.022a3.768,3.768,0,0,0-3.026-1.512H189.708a3.768,3.768,0,0,0-3.026,1.512c.119-.011.239-.022.362-.022Zm0,0" transform="translate(-55.233 -52.702)" fill="#cbcbcb"/>
    <path id="Path_64021" data-name="Path 64021" d="M228.3,184.738h27.087c.122,0,.242.01.361.022a3.768,3.768,0,0,0-3.026-1.512H230.966a3.767,3.767,0,0,0-3.026,1.512c.119-.011.239-.022.361-.022Zm0,0" transform="translate(-94.493)" fill="#cbcbcb"/>
  </g>
</svg>
